<svg id="base" xmlns="http://www.w3.org/2000/svg" viewBox="0 0 800 64"><defs><style>.cls-1{fill:lime;}</style></defs><path class="cls-1" d="M3,19.19H.91L12.38.08h2.06Z"/><path class="cls-1" d="M17.32,19.19H15.19L26.66.08h2.05Z"/><path class="cls-1" d="M31.59,19.19H29.47L40.93.08H43Z"/><path class="cls-1" d="M45.87,19.19H43.74L55.21.08h2Z"/><path class="cls-1" d="M60.14,19.19H58L69.48.08h2.06Z"/><path class="cls-1" d="M74.42,19.19H72.3L83.76.08h2.06Z"/><path class="cls-1" d="M88.7,19.19H86.57L98,.08h2Z"/><path class="cls-1" d="M103,19.19h-2.12L112.31.08h2.06Z"/><path class="cls-1" d="M117.25,19.19h-2.13L126.59.08h2.06Z"/><path class="cls-1" d="M131.53,19.19H129.4L140.87.08h2Z"/><path class="cls-1" d="M145.8,19.19h-2.12L155.14.08h2.06Z"/><path class="cls-1" d="M160.08,19.19H158L169.42.08h2.05Z"/><path class="cls-1" d="M174.35,19.19h-2.12L183.69.08h2.06Z"/><path class="cls-1" d="M188.63,19.19h-2.12L198,.08H200Z"/><path class="cls-1" d="M202.91,19.19h-2.13L212.25.08h2.05Z"/><path class="cls-1" d="M217.18,19.19h-2.12L226.52.08h2.06Z"/><path class="cls-1" d="M231.46,19.19h-2.13L240.8.08h2.06Z"/><path class="cls-1" d="M245.74,19.19h-2.13L255.08.08h2Z"/><path class="cls-1" d="M260,19.19h-2.12L269.35.08h2.06Z"/><path class="cls-1" d="M274.29,19.19h-2.13L283.63.08h2.05Z"/><path class="cls-1" d="M288.56,19.19h-2.12L297.9.08H300Z"/><path class="cls-1" d="M302.84,19.19h-2.12L312.18.08h2.06Z"/><path class="cls-1" d="M317.12,19.19H315L326.46.08h2.05Z"/><path class="cls-1" d="M331.39,19.19h-2.12L340.73.08h2.06Z"/><path class="cls-1" d="M345.67,19.19h-2.13L355,.08h2.06Z"/><path class="cls-1" d="M360,19.19h-2.13L369.29.08h2Z"/><path class="cls-1" d="M374.22,19.19H372.1L383.56.08h2.06Z"/><path class="cls-1" d="M388.5,19.19h-2.13L397.84.08h2.05Z"/><path class="cls-1" d="M402.77,19.19h-2.12L412.11.08h2.06Z"/><path class="cls-1" d="M417.05,19.19h-2.12L426.39.08h2.06Z"/><path class="cls-1" d="M431.33,19.19H429.2L440.67.08h2.05Z"/><path class="cls-1" d="M445.6,19.19h-2.12L454.94.08H457Z"/><path class="cls-1" d="M459.88,19.19h-2.13L469.22.08h2.06Z"/><path class="cls-1" d="M474.16,19.19H472L483.5.08h2.05Z"/><path class="cls-1" d="M488.43,19.19h-2.12L497.77.08h2.06Z"/><path class="cls-1" d="M502.71,19.19h-2.13L512.05.08h2.05Z"/><path class="cls-1" d="M517,19.19h-2.12L526.32.08h2.06Z"/><path class="cls-1" d="M531.26,19.19h-2.12L540.6.08h2.06Z"/><path class="cls-1" d="M545.54,19.19h-2.13L554.88.08h2Z"/><path class="cls-1" d="M559.81,19.19h-2.12L569.15.08h2.06Z"/><path class="cls-1" d="M574.09,19.19H572L583.43.08h2.06Z"/><path class="cls-1" d="M588.37,19.19h-2.13L597.71.08h2Z"/><path class="cls-1" d="M602.64,19.19h-2.12L612,.08H614Z"/><path class="cls-1" d="M616.92,19.19h-2.13L626.26.08h2Z"/><path class="cls-1" d="M631.19,19.19h-2.12L640.53.08h2.06Z"/><path class="cls-1" d="M645.47,19.19h-2.12L654.81.08h2.06Z"/><path class="cls-1" d="M659.75,19.19h-2.13L669.09.08h2Z"/><path class="cls-1" d="M674,19.19H671.9L683.36.08h2.06Z"/><path class="cls-1" d="M688.3,19.19h-2.13L697.64.08h2.06Z"/><path class="cls-1" d="M702.58,19.19h-2.13L711.92.08H714Z"/><path class="cls-1" d="M716.85,19.19h-2.12L726.19.08h2.06Z"/><path class="cls-1" d="M731.13,19.19H729L740.47.08h2Z"/><path class="cls-1" d="M745.4,19.19h-2.12L754.74.08h2.06Z"/><path class="cls-1" d="M759.68,19.19h-2.12L769,.08h2.06Z"/><path class="cls-1" d="M774,19.19h-2.13L783.3.08h2.05Z"/><path class="cls-1" d="M788.23,19.19h-2.12L797.57.08h2.06Z"/><path class="cls-1" d="M3,41.74H.91L12.38,22.63h2.06Z"/><path class="cls-1" d="M17.32,41.74H15.19L26.66,22.63h2.05Z"/><path class="cls-1" d="M31.59,41.74H29.47L40.93,22.63H43Z"/><path class="cls-1" d="M45.87,41.74H43.74L55.21,22.63h2Z"/><path class="cls-1" d="M60.14,41.74H58L69.48,22.63h2.06Z"/><path class="cls-1" d="M74.42,41.74H72.3L83.76,22.63h2.06Z"/><path class="cls-1" d="M88.7,41.74H86.57L98,22.63h2Z"/><path class="cls-1" d="M103,41.74h-2.12l11.46-19.11h2.06Z"/><path class="cls-1" d="M117.25,41.74h-2.13l11.47-19.11h2.06Z"/><path class="cls-1" d="M131.53,41.74H129.4l11.47-19.11h2Z"/><path class="cls-1" d="M145.8,41.74h-2.12l11.46-19.11h2.06Z"/><path class="cls-1" d="M160.08,41.74H158l11.47-19.11h2.05Z"/><path class="cls-1" d="M174.35,41.74h-2.12l11.46-19.11h2.06Z"/><path class="cls-1" d="M188.63,41.74h-2.12L198,22.63H200Z"/><path class="cls-1" d="M202.91,41.74h-2.13l11.47-19.11h2.05Z"/><path class="cls-1" d="M217.18,41.74h-2.12l11.46-19.11h2.06Z"/><path class="cls-1" d="M231.46,41.74h-2.13L240.8,22.63h2.06Z"/><path class="cls-1" d="M245.74,41.74h-2.13l11.47-19.11h2Z"/><path class="cls-1" d="M260,41.74h-2.12l11.46-19.11h2.06Z"/><path class="cls-1" d="M274.29,41.74h-2.13l11.47-19.11h2.05Z"/><path class="cls-1" d="M288.56,41.74h-2.12L297.9,22.63H300Z"/><path class="cls-1" d="M302.84,41.74h-2.12l11.46-19.11h2.06Z"/><path class="cls-1" d="M316.61,41.19v-18h3.52a12.14,12.14,0,0,1,4.24.48A3.35,3.35,0,0,1,326,25.07a4.23,4.23,0,0,1,.53,2.15A5.22,5.22,0,0,1,326.2,29a4.93,4.93,0,0,1-.93,1.55,6.21,6.21,0,0,1-1.79,1.33A5.72,5.72,0,0,1,326.39,34a4.75,4.75,0,0,1,.76,2.51,4.62,4.62,0,0,1-.64,2.32,4.32,4.32,0,0,1-1.81,1.73,8.52,8.52,0,0,1-3.71.6Zm2.34-9.9h2.46a5.45,5.45,0,0,0,1.75-1.06A3.48,3.48,0,0,0,324,29a4,4,0,0,0,.27-1.49,2.32,2.32,0,0,0-.75-1.9,4.78,4.78,0,0,0-2.92-.63H319Zm0,8.1h2.22a3.8,3.8,0,0,0,2.75-.87,2.88,2.88,0,0,0,.89-2.11,3.07,3.07,0,0,0-.49-1.67,3.32,3.32,0,0,0-1.51-1.21,8.72,8.72,0,0,0-3.21-.44H319Z"/><path class="cls-1" d="M330.88,41.19v-1.8h4V25h-4V23.17h10.27V25h-4V39.39h4v1.8Z"/><path class="cls-1" d="M355.79,41.18a12.63,12.63,0,0,1-3.5.56,7.24,7.24,0,0,1-4-1.12,7.34,7.34,0,0,1-2.76-3.36,12.32,12.32,0,0,1-1-5.08,12.43,12.43,0,0,1,1-5,7.46,7.46,0,0,1,2.75-3.38,7,7,0,0,1,3.9-1.15,10.6,10.6,0,0,1,3.63.75v2.14a7.41,7.41,0,0,0-3.72-1.08,3.94,3.94,0,0,0-2.55.95,6.61,6.61,0,0,0-1.86,2.8,11.17,11.17,0,0,0-.7,4,10.78,10.78,0,0,0,1.33,5.33,4.47,4.47,0,0,0,4.21,2.41,9.25,9.25,0,0,0,.94-.06V34.07h-1.8v-1.8h4.15Z"/><path class="cls-1" d="M358.26,43v-1.8h12.62V43Z"/><path class="cls-1" d="M376.1,34.62v6.57h-2.34v-18h4.48a9.6,9.6,0,0,1,4,.62,4.33,4.33,0,0,1,1.94,1.82,5.3,5.3,0,0,1,.68,2.67,6.19,6.19,0,0,1-.91,3.23,6,6,0,0,1-2.53,2.3,9.91,9.91,0,0,1-4.39.81Zm0-1.8h1a7.19,7.19,0,0,0,3.23-.56A3.92,3.92,0,0,0,382,30.64a4.77,4.77,0,0,0,.57-2.29,3.15,3.15,0,0,0-1-2.47c-.68-.6-2-.9-4-.9H376.1Z"/><path class="cls-1" d="M398.27,39.21v2h-9.74v-18h2.35v16Z"/><path class="cls-1" d="M402.9,41.19h-2.25l5.55-18h2.38l5.59,18H411.7l-1.24-4h-6.34Zm1.78-5.76h5.26l-2.17-6.84-.51-1.81-.45,1.81Z"/><path class="cls-1" d="M420.5,41.19v-16h-5.4v-2h13.16v2h-5.41v16Z"/><path class="cls-1" d="M431.46,41.19v-18h9.9V25H433.8V31.1h6.84v1.8H433.8v8.29Z"/><path class="cls-1" d="M450.23,41.74a5.21,5.21,0,0,1-4.69-2.58,13.06,13.06,0,0,1-1.62-7,13,13,0,0,1,1.62-7,5.54,5.54,0,0,1,9.38,0,13,13,0,0,1,1.61,7,13.07,13.07,0,0,1-1.61,7A5.21,5.21,0,0,1,450.23,41.74Zm0-1.81A3.29,3.29,0,0,0,453.06,38a11.87,11.87,0,0,0,1.13-5.83,11.87,11.87,0,0,0-1.13-5.83,3,3,0,0,0-5.66,0,11.76,11.76,0,0,0-1.13,5.83A11.76,11.76,0,0,0,447.4,38,3.28,3.28,0,0,0,450.23,39.93Z"/><path class="cls-1" d="M461.45,33.54v7.65H459.1v-18h4.82a9.41,9.41,0,0,1,3.48.48,3.73,3.73,0,0,1,1.72,1.46,3.86,3.86,0,0,1,.61,2.1,5.81,5.81,0,0,1-.41,2.1,6.3,6.3,0,0,1-1.12,1.89,7.25,7.25,0,0,1-2.06,1.57l5.22,8.42h-2.79l-4.78-7.65Zm0-1.81h3.29a6.28,6.28,0,0,0,1.64-1.23,4.84,4.84,0,0,0,.82-1.34,3.94,3.94,0,0,0,.28-1.42,2.45,2.45,0,0,0-.93-2A5.48,5.48,0,0,0,463.2,25h-1.75Z"/><path class="cls-1" d="M474.19,41.19H472.3v-18h2.36L478.81,35,483,23.17h2.3v18h-2.16V29.71l.06-1.58h-.06l-.51,1.58-2.79,7.88h-2.34l-2.83-7.88-.45-1.58h-.06l.06,1.58Z"/><path class="cls-1" d="M488.43,41.74h-2.12l11.46-19.11h2.06Z"/><path class="cls-1" d="M502.71,41.74h-2.13l11.47-19.11h2.05Z"/><path class="cls-1" d="M517,41.74h-2.12l11.46-19.11h2.06Z"/><path class="cls-1" d="M531.26,41.74h-2.12L540.6,22.63h2.06Z"/><path class="cls-1" d="M545.54,41.74h-2.13l11.47-19.11h2Z"/><path class="cls-1" d="M559.81,41.74h-2.12l11.46-19.11h2.06Z"/><path class="cls-1" d="M574.09,41.74H572l11.47-19.11h2.06Z"/><path class="cls-1" d="M588.37,41.74h-2.13l11.47-19.11h2Z"/><path class="cls-1" d="M602.64,41.74h-2.12L612,22.63H614Z"/><path class="cls-1" d="M616.92,41.74h-2.13l11.47-19.11h2Z"/><path class="cls-1" d="M631.19,41.74h-2.12l11.46-19.11h2.06Z"/><path class="cls-1" d="M645.47,41.74h-2.12l11.46-19.11h2.06Z"/><path class="cls-1" d="M659.75,41.74h-2.13l11.47-19.11h2Z"/><path class="cls-1" d="M674,41.74H671.9l11.46-19.11h2.06Z"/><path class="cls-1" d="M688.3,41.74h-2.13l11.47-19.11h2.06Z"/><path class="cls-1" d="M702.58,41.74h-2.13l11.47-19.11H714Z"/><path class="cls-1" d="M716.85,41.74h-2.12l11.46-19.11h2.06Z"/><path class="cls-1" d="M731.13,41.74H729l11.47-19.11h2Z"/><path class="cls-1" d="M745.4,41.74h-2.12l11.46-19.11h2.06Z"/><path class="cls-1" d="M759.68,41.74h-2.12L769,22.63h2.06Z"/><path class="cls-1" d="M774,41.74h-2.13L783.3,22.63h2.05Z"/><path class="cls-1" d="M788.23,41.74h-2.12l11.46-19.11h2.06Z"/><path class="cls-1" d="M3,64.29H.91L12.38,45.18h2.06Z"/><path class="cls-1" d="M17.32,64.29H15.19L26.66,45.18h2.05Z"/><path class="cls-1" d="M31.59,64.29H29.47L40.93,45.18H43Z"/><path class="cls-1" d="M45.87,64.29H43.74L55.21,45.18h2Z"/><path class="cls-1" d="M60.14,64.29H58L69.48,45.18h2.06Z"/><path class="cls-1" d="M74.42,64.29H72.3L83.76,45.18h2.06Z"/><path class="cls-1" d="M88.7,64.29H86.57L98,45.18h2Z"/><path class="cls-1" d="M103,64.29h-2.12l11.46-19.11h2.06Z"/><path class="cls-1" d="M117.25,64.29h-2.13l11.47-19.11h2.06Z"/><path class="cls-1" d="M131.53,64.29H129.4l11.47-19.11h2Z"/><path class="cls-1" d="M145.8,64.29h-2.12l11.46-19.11h2.06Z"/><path class="cls-1" d="M160.08,64.29H158l11.47-19.11h2.05Z"/><path class="cls-1" d="M174.35,64.29h-2.12l11.46-19.11h2.06Z"/><path class="cls-1" d="M188.63,64.29h-2.12L198,45.18H200Z"/><path class="cls-1" d="M202.91,64.29h-2.13l11.47-19.11h2.05Z"/><path class="cls-1" d="M217.18,64.29h-2.12l11.46-19.11h2.06Z"/><path class="cls-1" d="M231.46,64.29h-2.13L240.8,45.18h2.06Z"/><path class="cls-1" d="M245.74,64.29h-2.13l11.47-19.11h2Z"/><path class="cls-1" d="M260,64.29h-2.12l11.46-19.11h2.06Z"/><path class="cls-1" d="M274.29,64.29h-2.13l11.47-19.11h2.05Z"/><path class="cls-1" d="M288.56,64.29h-2.12L297.9,45.18H300Z"/><path class="cls-1" d="M302.84,64.29h-2.12l11.46-19.11h2.06Z"/><path class="cls-1" d="M317.12,64.29H315l11.47-19.11h2.05Z"/><path class="cls-1" d="M331.39,64.29h-2.12l11.46-19.11h2.06Z"/><path class="cls-1" d="M345.67,64.29h-2.13L355,45.18h2.06Z"/><path class="cls-1" d="M360,64.29h-2.13l11.47-19.11h2Z"/><path class="cls-1" d="M374.22,64.29H372.1l11.46-19.11h2.06Z"/><path class="cls-1" d="M388.5,64.29h-2.13l11.47-19.11h2.05Z"/><path class="cls-1" d="M402.77,64.29h-2.12l11.46-19.11h2.06Z"/><path class="cls-1" d="M417.05,64.29h-2.12l11.46-19.11h2.06Z"/><path class="cls-1" d="M431.33,64.29H429.2l11.47-19.11h2.05Z"/><path class="cls-1" d="M445.6,64.29h-2.12l11.46-19.11H457Z"/><path class="cls-1" d="M459.88,64.29h-2.13l11.47-19.11h2.06Z"/><path class="cls-1" d="M474.16,64.29H472L483.5,45.18h2.05Z"/><path class="cls-1" d="M488.43,64.29h-2.12l11.46-19.11h2.06Z"/><path class="cls-1" d="M502.71,64.29h-2.13l11.47-19.11h2.05Z"/><path class="cls-1" d="M517,64.29h-2.12l11.46-19.11h2.06Z"/><path class="cls-1" d="M531.26,64.29h-2.12L540.6,45.18h2.06Z"/><path class="cls-1" d="M545.54,64.29h-2.13l11.47-19.11h2Z"/><path class="cls-1" d="M559.81,64.29h-2.12l11.46-19.11h2.06Z"/><path class="cls-1" d="M574.09,64.29H572l11.47-19.11h2.06Z"/><path class="cls-1" d="M588.37,64.29h-2.13l11.47-19.11h2Z"/><path class="cls-1" d="M602.64,64.29h-2.12L612,45.18H614Z"/><path class="cls-1" d="M616.92,64.29h-2.13l11.47-19.11h2Z"/><path class="cls-1" d="M631.19,64.29h-2.12l11.46-19.11h2.06Z"/><path class="cls-1" d="M645.47,64.29h-2.12l11.46-19.11h2.06Z"/><path class="cls-1" d="M659.75,64.29h-2.13l11.47-19.11h2Z"/><path class="cls-1" d="M674,64.29H671.9l11.46-19.11h2.06Z"/><path class="cls-1" d="M688.3,64.29h-2.13l11.47-19.11h2.06Z"/><path class="cls-1" d="M702.58,64.29h-2.13l11.47-19.11H714Z"/><path class="cls-1" d="M716.85,64.29h-2.12l11.46-19.11h2.06Z"/><path class="cls-1" d="M731.13,64.29H729l11.47-19.11h2Z"/><path class="cls-1" d="M745.4,64.29h-2.12l11.46-19.11h2.06Z"/><path class="cls-1" d="M759.68,64.29h-2.12L769,45.18h2.06Z"/><path class="cls-1" d="M774,64.29h-2.13L783.3,45.18h2.05Z"/><path class="cls-1" d="M788.23,64.29h-2.12l11.46-19.11h2.06Z"/></svg>