<?xml version="1.0" encoding="UTF-8"?><svg xmlns="http://www.w3.org/2000/svg" viewBox="0 0 800 64"><defs><style>.c{fill:#eee;}.c,.d,.e{stroke:#000;stroke-miterlimit:10;}.f,.e{fill:#fff;}.d{fill:#fc88ff;stroke-linecap:round;}</style></defs><g id="a"/><g id="b"><path class="e" d="M63.22,45.18c4.34,4.72,7.01,11.09,7.01,18.09,0,.25,0,.49-.02,.73H19.01c-.02-.24-.02-.48-.02-.73,0-7,2.67-13.37,7.01-18.09-4.04-4.39-6.63-10.2-6.97-16.63-.03-.48-.04-.97-.04-1.46C18.99,12.54,30.46,.75,44.6,.75s25.62,11.79,25.62,26.34c0,.49-.01,.98-.04,1.46-.34,6.43-2.93,12.24-6.97,16.63Z"/><path class="c" d="M62.69,.08c-7.01,0-13.37,2.67-18.09,7.01C39.88,2.75,33.52,.08,26.51,.08,11.96,.08,.17,11.55,.17,25.7s11.79,25.62,26.34,25.62c7.01,0,13.37-2.67,18.09-7.01,4.72,4.34,11.08,7.01,18.09,7.01,14.55,0,26.34-11.47,26.34-25.62S77.24,.08,62.69,.08Z"/><path class="f" d="M89.04,26.59c0,1.04-.06,2.07-.19,3.07-1.54-12.83-12.66-22.78-26.15-22.78-7.01,0-13.37,2.69-18.09,7.07-4.72-4.38-11.09-7.07-18.09-7.07C13.03,6.88,1.89,16.83,.35,29.66c-.13-1-.19-2.03-.19-3.07C.16,12.32,11.97,.75,26.52,.75c7,0,13.37,2.69,18.09,7.07C49.33,3.44,55.68,.75,62.7,.75c14.55,0,26.34,11.57,26.34,25.85Z"/><path class="e" d="M152.09,45.18c4.34,4.72,7.01,11.09,7.01,18.09,0,.25,0,.49-.02,.73h-51.2c-.02-.24-.02-.48-.02-.73,0-7,2.67-13.37,7.01-18.09-4.04-4.39-6.63-10.2-6.97-16.63-.03-.48-.04-.97-.04-1.46,0-14.55,11.47-26.34,25.62-26.34s25.62,11.79,25.62,26.34c0,.49-.01,.98-.04,1.46-.34,6.43-2.93,12.24-6.97,16.63Z"/><path class="c" d="M151.57,.08c-7.01,0-13.37,2.67-18.09,7.01C128.76,2.75,122.39,.08,115.38,.08c-14.55,0-26.34,11.47-26.34,25.62s11.79,25.62,26.34,25.62c7.01,0,13.37-2.67,18.09-7.01,4.72,4.34,11.08,7.01,18.09,7.01,14.55,0,26.34-11.47,26.34-25.62S166.12,.08,151.57,.08Z"/><path class="f" d="M177.91,26.59c0,1.04-.06,2.07-.19,3.07-1.54-12.83-12.66-22.78-26.15-22.78-7.01,0-13.37,2.69-18.09,7.07-4.72-4.38-11.09-7.07-18.09-7.07-13.49,0-24.62,9.95-26.16,22.78-.13-1-.19-2.03-.19-3.07,0-14.28,11.8-25.85,26.35-25.85,7,0,13.37,2.69,18.09,7.07,4.72-4.38,11.08-7.07,18.09-7.07,14.55,0,26.34,11.57,26.34,25.85Z"/><path class="e" d="M240.96,45.18c4.34,4.72,7.01,11.09,7.01,18.09,0,.25,0,.49-.02,.73h-51.2c-.02-.24-.02-.48-.02-.73,0-7,2.67-13.37,7.01-18.09-4.04-4.39-6.63-10.2-6.97-16.63-.03-.48-.04-.97-.04-1.46,0-14.55,11.47-26.34,25.62-26.34s25.62,11.79,25.62,26.34c0,.49-.01,.98-.04,1.46-.34,6.43-2.93,12.24-6.97,16.63Z"/><path class="c" d="M240.44,.08c-7.01,0-13.37,2.67-18.09,7.01C217.63,2.75,211.27,.08,204.26,.08c-14.55,0-26.34,11.47-26.34,25.62s11.79,25.62,26.34,25.62c7.01,0,13.37-2.67,18.09-7.01,4.72,4.34,11.08,7.01,18.09,7.01,14.55,0,26.34-11.47,26.34-25.62S254.99,.08,240.44,.08Z"/><path class="f" d="M266.78,26.59c0,1.04-.06,2.07-.19,3.07-1.54-12.83-12.66-22.78-26.15-22.78-7.01,0-13.37,2.69-18.09,7.07-4.72-4.38-11.09-7.07-18.09-7.07-13.49,0-24.62,9.95-26.16,22.78-.13-1-.19-2.03-.19-3.07,0-14.28,11.8-25.85,26.35-25.85,7,0,13.37,2.69,18.09,7.07,4.72-4.38,11.08-7.07,18.09-7.07,14.55,0,26.34,11.57,26.34,25.85Z"/><path class="e" d="M329.83,45.18c4.34,4.72,7.01,11.09,7.01,18.09,0,.25,0,.49-.02,.73h-51.2c-.02-.24-.02-.48-.02-.73,0-7,2.67-13.37,7.01-18.09-4.04-4.39-6.63-10.2-6.97-16.63-.03-.48-.04-.97-.04-1.46,0-14.55,11.47-26.34,25.62-26.34s25.62,11.79,25.62,26.34c0,.49-.01,.98-.04,1.46-.34,6.43-2.93,12.24-6.97,16.63Z"/><path class="c" d="M329.31,.08c-7.01,0-13.37,2.67-18.09,7.01-4.72-4.34-11.08-7.01-18.09-7.01-14.55,0-26.34,11.47-26.34,25.62s11.79,25.62,26.34,25.62c7.01,0,13.37-2.67,18.09-7.01,4.72,4.34,11.08,7.01,18.09,7.01,14.55,0,26.34-11.47,26.34-25.62S343.86,.08,329.31,.08Z"/><path class="f" d="M355.65,26.59c0,1.04-.06,2.07-.19,3.07-1.54-12.83-12.66-22.78-26.15-22.78-7.01,0-13.37,2.69-18.09,7.07-4.72-4.38-11.09-7.07-18.09-7.07-13.49,0-24.62,9.95-26.16,22.78-.13-1-.19-2.03-.19-3.07,0-14.28,11.8-25.85,26.35-25.85,7,0,13.37,2.69,18.09,7.07,4.72-4.38,11.08-7.07,18.09-7.07,14.55,0,26.34,11.57,26.34,25.85Z"/><path class="e" d="M418.71,45.18c4.34,4.72,7.01,11.09,7.01,18.09,0,.25,0,.49-.02,.73h-51.2c-.02-.24-.02-.48-.02-.73,0-7,2.67-13.37,7.01-18.09-4.04-4.39-6.63-10.2-6.97-16.63-.03-.48-.04-.97-.04-1.46,0-14.55,11.47-26.34,25.62-26.34s25.62,11.79,25.62,26.34c0,.49-.01,.98-.04,1.46-.34,6.43-2.93,12.24-6.97,16.63Z"/><path class="c" d="M418.19,.08c-7.01,0-13.37,2.67-18.09,7.01-4.72-4.34-11.08-7.01-18.09-7.01-14.55,0-26.34,11.47-26.34,25.62s11.79,25.62,26.34,25.62c7.01,0,13.37-2.67,18.09-7.01,4.72,4.34,11.08,7.01,18.09,7.01,14.55,0,26.34-11.47,26.34-25.62S432.73,.08,418.19,.08Z"/><path class="f" d="M444.53,26.59c0,1.04-.06,2.07-.19,3.07-1.54-12.83-12.66-22.78-26.15-22.78-7.01,0-13.37,2.69-18.09,7.07-4.72-4.38-11.09-7.07-18.09-7.07-13.49,0-24.62,9.95-26.16,22.78-.13-1-.19-2.03-.19-3.07,0-14.28,11.8-25.85,26.35-25.85,7,0,13.37,2.69,18.09,7.07,4.72-4.38,11.08-7.07,18.09-7.07,14.55,0,26.34,11.57,26.34,25.85Z"/><path class="e" d="M507.58,45.18c4.34,4.72,7.01,11.09,7.01,18.09,0,.25,0,.49-.02,.73h-51.2c-.02-.24-.02-.48-.02-.73,0-7,2.67-13.37,7.01-18.09-4.04-4.39-6.63-10.2-6.97-16.63-.03-.48-.04-.97-.04-1.46,0-14.55,11.47-26.34,25.62-26.34s25.62,11.79,25.62,26.34c0,.49-.01,.98-.04,1.46-.34,6.43-2.93,12.24-6.97,16.63Z"/><path class="c" d="M507.06,.08c-7.01,0-13.37,2.67-18.09,7.01-4.72-4.34-11.08-7.01-18.09-7.01-14.55,0-26.34,11.47-26.34,25.62s11.79,25.62,26.34,25.62c7.01,0,13.37-2.67,18.09-7.01,4.72,4.34,11.08,7.01,18.09,7.01,14.55,0,26.34-11.47,26.34-25.62S521.61,.08,507.06,.08Z"/><path class="f" d="M533.4,26.59c0,1.04-.06,2.07-.19,3.07-1.54-12.83-12.66-22.78-26.15-22.78-7.01,0-13.37,2.69-18.09,7.07-4.72-4.38-11.09-7.07-18.09-7.07-13.49,0-24.62,9.95-26.16,22.78-.13-1-.19-2.03-.19-3.07,0-14.28,11.8-25.85,26.35-25.85,7,0,13.37,2.69,18.09,7.07,4.72-4.38,11.08-7.07,18.09-7.07,14.55,0,26.34,11.57,26.34,25.85Z"/><path class="e" d="M596.45,45.18c4.34,4.72,7.01,11.09,7.01,18.09,0,.25,0,.49-.02,.73h-51.2c-.02-.24-.02-.48-.02-.73,0-7,2.67-13.37,7.01-18.09-4.04-4.39-6.63-10.2-6.97-16.63-.03-.48-.04-.97-.04-1.46,0-14.55,11.47-26.34,25.62-26.34s25.62,11.79,25.62,26.34c0,.49-.01,.98-.04,1.46-.34,6.43-2.93,12.24-6.97,16.63Z"/><path class="c" d="M595.93,.08c-7.01,0-13.37,2.67-18.09,7.01-4.72-4.34-11.08-7.01-18.09-7.01-14.55,0-26.34,11.47-26.34,25.62s11.79,25.62,26.34,25.62c7.01,0,13.37-2.67,18.09-7.01,4.72,4.34,11.08,7.01,18.09,7.01,14.55,0,26.34-11.47,26.34-25.62S610.48,.08,595.93,.08Z"/><path class="f" d="M622.27,26.59c0,1.04-.06,2.07-.19,3.07-1.54-12.83-12.66-22.78-26.15-22.78-7.01,0-13.37,2.69-18.09,7.07-4.72-4.38-11.09-7.07-18.09-7.07-13.49,0-24.62,9.95-26.16,22.78-.13-1-.19-2.03-.19-3.07,0-14.28,11.8-25.85,26.35-25.85,7,0,13.37,2.69,18.09,7.07,4.72-4.38,11.08-7.07,18.09-7.07,14.55,0,26.34,11.57,26.34,25.85Z"/><path class="e" d="M685.33,45.18c4.34,4.72,7.01,11.09,7.01,18.09,0,.25,0,.49-.02,.73h-51.2c-.02-.24-.02-.48-.02-.73,0-7,2.67-13.37,7.01-18.09-4.04-4.39-6.63-10.2-6.97-16.63-.03-.48-.04-.97-.04-1.46,0-14.55,11.47-26.34,25.62-26.34s25.62,11.79,25.62,26.34c0,.49-.01,.98-.04,1.46-.34,6.43-2.93,12.24-6.97,16.63Z"/><path class="c" d="M684.8,.08c-7.01,0-13.37,2.67-18.09,7.01-4.72-4.34-11.08-7.01-18.09-7.01-14.55,0-26.34,11.47-26.34,25.62s11.79,25.62,26.34,25.62c7.01,0,13.37-2.67,18.09-7.01,4.72,4.34,11.08,7.01,18.09,7.01,14.55,0,26.34-11.47,26.34-25.62S699.35,.08,684.8,.08Z"/><path class="f" d="M711.15,26.59c0,1.04-.06,2.07-.19,3.07-1.54-12.83-12.66-22.78-26.15-22.78-7.01,0-13.37,2.69-18.09,7.07-4.72-4.38-11.09-7.07-18.09-7.07-13.49,0-24.62,9.95-26.16,22.78-.13-1-.19-2.03-.19-3.07,0-14.28,11.8-25.85,26.35-25.85,7,0,13.37,2.69,18.09,7.07,4.72-4.38,11.08-7.07,18.09-7.07,14.55,0,26.34,11.57,26.34,25.85Z"/><path class="e" d="M774.2,45.18c4.34,4.72,7.01,11.09,7.01,18.09,0,.25,0,.49-.02,.73h-51.2c-.02-.24-.02-.48-.02-.73,0-7,2.67-13.37,7.01-18.09-4.04-4.39-6.63-10.2-6.97-16.63-.03-.48-.04-.97-.04-1.46,0-14.55,11.47-26.34,25.62-26.34s25.62,11.79,25.62,26.34c0,.49-.01,.98-.04,1.46-.34,6.43-2.93,12.24-6.97,16.63Z"/><path class="c" d="M773.68,.08c-7.01,0-13.37,2.67-18.09,7.01-4.72-4.34-11.08-7.01-18.09-7.01-14.55,0-26.34,11.47-26.34,25.62s11.79,25.62,26.34,25.62c7.01,0,13.37-2.67,18.09-7.01,4.72,4.34,11.08,7.01,18.09,7.01,14.55,0,26.34-11.47,26.34-25.62S788.23,.08,773.68,.08Z"/><path class="f" d="M800.02,26.59c0,1.04-.06,2.07-.19,3.07-1.54-12.83-12.66-22.78-26.15-22.78-7.01,0-13.37,2.69-18.09,7.07-4.72-4.38-11.09-7.07-18.09-7.07-13.49,0-24.62,9.95-26.16,22.78-.13-1-.19-2.03-.19-3.07,0-14.28,11.8-25.85,26.35-25.85,7,0,13.37,2.69,18.09,7.07,4.72-4.38,11.08-7.07,18.09-7.07,14.55,0,26.34,11.57,26.34,25.85Z"/><rect class="d" x=".16" y="28.55" width="799.83" height="35.45"/></g></svg>